# xmcd
#
# Track frame offsets:
#	180
#	26434
#	50514
#	60332
#	81254
#	120343
#	134468
#	155232
#	174723
#	187128
#	205721
#	223496
#	239178
#	265270
#	280929
#	301896
#
# Disc length: 4246 seconds
#
# Revision: 0
# Processed by: cddbd v1.4PL0 Copyright (c) Steve Scherf et al.
# Submitted via: dBpowerAMP V4.0
#
DISCID=f5109410
DTITLE=Los Angeles de Charlie - Recuerdos
DYEAR=2003
DGENRE=Romantico
TTITLE0=Esclavo y Amo
TTITLE1=Me Siento Solo
TTITLE2=Hipocresia
TTITLE3=Lamento de Amor
TTITLE4=Yo se que te acordaras
TTITLE5=Nunca Mas Podre Olvidarte
TTITLE6=Luto en mi Alma
TTITLE7=Dejenme si estoy llorando
TTITLE8=Te lo pido de Rodillas
TTITLE9=El
TTITLE10=Chiquilina
TTITLE11=Mi Amor es para ti
TTITLE12=Eres mi Mundo
TTITLE13=Tengo Miedo
TTITLE14=Pecado Mortal
TTITLE15=Extra
EXTD=Recuerdos by Domingo Soriano
EXTT0=
EXTT1=
EXTT2=
EXTT3=
EXTT4=
EXTT5=
EXTT6=
EXTT7=
EXTT8=
EXTT9=
EXTT10=
EXTT11=
EXTT12=
EXTT13=
EXTT14=
EXTT15=
PLAYORDER=
